<?xml version="1.0" encoding="utf-8"?>
<!-- Generator: Adobe Illustrator 21.0.2, SVG Export Plug-In . SVG Version: 6.00 Build 0)  -->
<svg version="1.1" id="Calque_1" xmlns="http://www.w3.org/2000/svg" xmlns:xlink="http://www.w3.org/1999/xlink" x="0px" y="0px"
	 viewBox="0 0 1938 557.1" style="enable-background:new 0 0 1938 557.1;" xml:space="preserve">
<style type="text/css">
	.st0{fill:#FFFFFF;}
</style>
<title>Akuiteo_Logo-Baseline-blue-RVB</title>
<path class="st0" d="M242,1.9C108.4,1.9,0.1,110.2,0.1,243.8s108.3,242,241.9,242s241.9-108.3,241.9-242
	C484,110.2,375.6,1.9,242,1.9z M362.8,337.9c-2.7,14-16.3,23.2-30.3,20.5s-23.2-16.3-20.5-30.3c0.2-1.1,9.9-56.1-15.4-97.4
	c-15.3,14.4-31.9,27.3-49.5,38.6c-75.5,48.6-156.8,56.7-160.2,57c-0.8,0.1-1.6,0.1-2.4,0.1c-13.3,0-24.4-10.1-25.7-23.4
	c-1.4-14.2,9-26.8,23.2-28.2c1.3-0.1,72.7-7.6,137-49c72.4-46.7,93-102.1,93.2-102.7c4.8-13.1,19.1-20,32.3-15.7
	c13.6,4.4,21,19,16.5,32.6c-0.5,1.6-8.1,22.8-29,50.9l0,0C378.9,251.7,363.5,334.2,362.8,337.9z"/>
<g>
	<path class="st0" d="M724.9,514.2c6-3.9,9.1-9.8,9.1-17.1v-0.2c0.1-5-1.9-9.9-5.4-13.5c-4.9-4.8-12.2-7.3-21.2-7.3h-28
		c-3.5,0.1-6.2,2.9-6.2,6.3v67c0,3.4,2.8,6.2,6.2,6.3h29.4c8.6,0,15.9-2,21.1-5.8c5.5-4,8.3-9.8,8.3-16.8v-0.2
		C738.3,524.3,733.8,518,724.9,514.2z M709,544h-23.4v-22.7h21.9c15,0,18.1,6,18.1,11v0.2C725.6,539.7,719.4,544,709,544z
		 M685.6,509.7v-22h21c9.4,0,14.8,3.8,14.8,10.3v0.2c0,3.5-1.5,11.5-15.4,11.5H685.6z"/>
	<path class="st0" d="M810.8,475.6L810.8,475.6L810.8,475.6c-3.5,0-6.3,2.8-6.3,6.3v40.2c0,14.8-7.4,23-20.8,23
		c-13.4,0-21.1-8.6-21.1-23.5v-39.7c0-3.5-2.8-6.3-6.3-6.3s-6.3,2.8-6.3,6.3v40.2c0,21.5,12.8,34.9,33.4,34.9
		c21,0,33.6-13.3,33.6-35.5v-39.6C817,478.4,814.2,475.6,810.8,475.6z"/>
	<path class="st0" d="M882.3,518.1c-4.2-3.6-10.4-6.2-19.5-8.2c-17.6-3.8-19-7.8-19-12.7v-0.3c0-6,5.8-10.2,14.1-10.2h0.2
		c6.5,0,12.9,2.2,18.1,6.2l0,0l0,0c1,0.7,2.2,1.1,3.5,1.1c0.1,0,0.1,0,0.2,0c3.4,0,6.1-2.8,6.1-6.1l0,0l0,0c-0.1-2-1.1-3.9-2.7-5
		c-7.5-5.4-15.3-7.8-25.3-7.8c-7.4,0-14.2,2.2-19.1,6.3c-5,4.2-7.8,10-7.8,16.3v0.2c0,14.9,10.8,20.3,27,23.8
		c16.8,3.6,18.1,7.6,18.1,12.4v0.2c0,6.5-6,10.9-14.9,10.9c-8.8,0-15.5-2.5-22.6-8.5c-1.1-1-2.4-1.5-3.9-1.5h-0.1
		c-3.4,0.1-6,2.9-6,6.2c0,1.9,0.9,3.7,2.4,4.8c8.3,6.9,18.7,10.6,29.5,10.6h0.4c16.4,0,27.8-9.6,27.8-23.4v-0.2
		C889,526.9,886.8,521.9,882.3,518.1z"/>
	<path class="st0" d="M909.5,475.6L909.5,475.6L909.5,475.6c-3.5,0-6.3,2.8-6.3,6.3v68c0,3.5,2.8,6.3,6.3,6.3s6.3-2.8,6.3-6.3v-68.1
		C915.7,478.4,912.9,475.6,909.5,475.6z"/>
	<path class="st0" d="M995.7,475.6L995.7,475.6L995.7,475.6c-1.7,0-3.2,0.7-4.4,1.8c-1.2,1.2-1.8,2.7-1.8,4.4V533l-42.4-54
		c-1.3-1.6-3-3.3-5.9-3.3h-1.1c-3.4,0.1-6.2,2.8-6.2,6.2v68.2c0,3.4,2.8,6.2,6.2,6.2s6.2-2.8,6.2-6.2v-52.8l43.3,55.4l0,0l0,0
		c1.4,1.6,3.2,3.3,5.9,3.3h0.4h0.1c0.1,0,0.2,0,0.3,0c1.6-0.1,3-0.7,4-1.9c1-1.1,1.6-2.6,1.5-4.1v-68.3
		C1001.9,478.3,999.1,475.6,995.7,475.6z"/>
	<path class="st0" d="M1073.1,544h-41.2v-22.5h35.8c3.3,0,5.9-2.7,5.9-5.9c0-3.3-2.6-5.8-5.9-5.9h-35.9v-21.8h40.7
		c3.2,0,5.9-2.6,5.9-5.9c0-3.2-2.6-5.9-5.9-5.9h-47c-3.5,0.1-6.2,2.9-6.2,6.3v67c0,3.4,2.8,6.3,6.2,6.3h47.6c3.2,0,5.9-2.6,5.9-5.9
		C1079,546.6,1076.3,544,1073.1,544z"/>
	<path class="st0" d="M1140.8,518.1c-4.2-3.6-10.4-6.2-19.5-8.2c-17.6-3.8-19-7.8-19-12.7v-0.3c0-6,5.8-10.2,14.1-10.2h0.2
		c6.5,0,12.9,2.2,18.1,6.2l0,0l0,0c1,0.7,2.2,1.1,3.5,1.1c0.1,0,0.1,0,0.2,0c3.4,0,6.1-2.8,6.1-6.1l0,0l0,0c-0.1-2-1.1-3.9-2.7-5
		c-7.5-5.4-15.3-7.8-25.3-7.8c-7.4,0-14.2,2.2-19.1,6.3c-5,4.2-7.8,10-7.8,16.3v0.2c0,14.9,10.8,20.3,27,23.8
		c16.8,3.6,18.1,7.6,18.1,12.4v0.2c0,6.5-6,10.9-14.9,10.9c-8.8,0-15.5-2.5-22.6-8.5c-1.1-1-2.4-1.5-3.9-1.5h-0.1
		c-3.4,0.1-6,2.9-6,6.2c0,1.9,0.9,3.7,2.4,4.8c8.3,6.9,18.7,10.6,29.5,10.6h0.4c16.4,0,27.8-9.6,27.8-23.4v-0.2
		C1147.5,526.9,1145.3,521.9,1140.8,518.1z"/>
	<path class="st0" d="M1209,518.1c-4.2-3.6-10.4-6.2-19.5-8.2c-17.6-3.8-19-7.8-19-12.7v-0.3c0-6,5.8-10.2,14.1-10.2h0.2
		c6.5,0,12.9,2.2,18.1,6.2l0,0l0,0c1,0.7,2.2,1.1,3.5,1.1c0.1,0,0.1,0,0.2,0c3.4,0,6.1-2.8,6.1-6.1l0,0l0,0c-0.1-2-1.1-3.9-2.7-5
		c-7.5-5.4-15.3-7.8-25.3-7.8c-7.4,0-14.2,2.2-19.1,6.3c-5,4.2-7.8,10-7.8,16.3v0.2c0,14.9,10.8,20.3,27,23.8
		c16.8,3.6,18.1,7.6,18.1,12.4v0.2c0,6.5-6,10.9-14.9,10.9c-8.8,0-15.5-2.5-22.6-8.5c-1.1-1-2.4-1.5-3.9-1.5h-0.1
		c-3.4,0.1-6,2.9-6,6.2c0,1.9,0.9,3.7,2.4,4.8c8.3,6.9,18.7,10.6,29.5,10.6h0.4c16.4,0,27.8-9.6,27.8-23.4v-0.2
		C1215.7,526.9,1213.5,521.9,1209,518.1z"/>
	<path class="st0" d="M1310.6,518.1c-4.2-3.6-10.4-6.2-19.5-8.2c-17.6-3.8-19-7.8-19-12.7v-0.3c0-6,5.8-10.2,14.1-10.2h0.2
		c6.5,0,12.9,2.2,18.1,6.2l0,0l0,0c1,0.7,2.2,1.1,3.5,1.1c0.1,0,0.1,0,0.2,0c3.4,0,6.1-2.8,6.1-6.1l0,0l0,0c-0.1-2-1.1-3.9-2.7-5
		c-7.5-5.4-15.3-7.8-25.3-7.8c-7.4,0-14.2,2.2-19.1,6.3c-5,4.2-7.8,10-7.8,16.3v0.2c0,14.9,10.8,20.3,27,23.8
		c16.8,3.6,18.1,7.6,18.1,12.4v0.2c0,6.5-6,10.9-14.9,10.9c-8.8,0-15.5-2.5-22.6-8.5c-1.1-1-2.4-1.5-3.9-1.5h-0.1
		c-3.4,0.1-6,2.9-6,6.2c0,1.9,0.9,3.7,2.4,4.8c8.3,6.9,18.7,10.6,29.5,10.6h0.4c16.4,0,27.8-9.6,27.8-23.4v-0.2
		C1317.3,526.9,1315.1,521.9,1310.6,518.1z"/>
	<path class="st0" d="M1368,474.8c-11.4,0-21.9,4.4-29.4,12.4c-7.3,7.7-11.3,17.9-11.3,28.8v0.2c0,10.9,4,21.1,11.2,28.7
		c7.5,7.9,17.9,12.3,29.3,12.3s21.9-4.4,29.4-12.4c7.3-7.7,11.3-17.9,11.3-28.8v-0.2c0-10.9-4-21.1-11.2-28.7
		C1389.9,479.1,1379.4,474.8,1368,474.8z M1395.6,515.9v0.2v1.4c-0.7,15.8-12.3,27.6-27.6,27.6c-7.7,0-14.8-3-19.9-8.5
		c-5.1-5.4-7.9-12.8-7.9-20.7v-0.2c0-16.5,11.9-29,27.6-29c7.7,0,14.8,3,19.9,8.5C1392.8,500.6,1395.6,508,1395.6,515.9z"/>
	<path class="st0" d="M1475.6,476.1L1475.6,476.1L1475.6,476.1h-46.8c-3.5,0.1-6.2,2.9-6.2,6.3v67.5c0,3.5,2.8,6.3,6.3,6.3
		s6.3-2.8,6.3-6.3v-27.2h35.6c3.2,0,5.9-2.6,5.9-5.9c0-3.2-2.6-5.9-5.9-5.9h-35.7v-23h40.5l0,0l0,0c3.3-0.1,5.8-2.7,5.8-6
		C1481.4,478.7,1478.8,476.1,1475.6,476.1z"/>
	<path class="st0" d="M1546.1,476.1L1546.1,476.1L1546.1,476.1h-52.6c-3.3,0-6,2.7-6,6l0,0l0,0c0.1,3.3,2.7,5.8,6,5.8h19.9v62
		c0,3.5,2.8,6.3,6.3,6.3s6.3-2.8,6.3-6.3v-62h19.9c3.3,0,5.9-2.6,6-5.8l0,0l0,0C1552,478.7,1549.4,476.1,1546.1,476.1z"/>
	<path class="st0" d="M1670.2,481.9v-0.2v-0.2c-0.2-3.4-2.9-6-6.3-6.1h-0.1h-0.1c-2.8,0.1-5.3,2-6,4.8l-19,54.6l-17.9-54.6
		c-0.7-2.8-3.2-4.8-6.1-4.8h-0.6c-2.9,0-5.1,1.7-6.1,4.7l-17.9,54.7l-18.9-54.4c-0.8-2.8-3.3-4.8-6.2-5h-0.1h-0.1
		c-3.4,0.1-6.3,2.8-6.4,6.2v0.1v0.1c0.1,0.9,0.2,1.7,0.6,2.5l24.2,67.2c1.1,3.2,3.4,5,6.3,5h0.7c2.9,0,5.2-1.9,6.3-5l17.7-52.6
		l17.8,52.5c1.1,3.2,3.5,5,6.3,5h0.7c2.9,0,5.2-1.9,6.3-5l24.2-67.2C1669.9,483.7,1670.1,482.8,1670.2,481.9z"/>
	<path class="st0" d="M1746,550c-0.1-1-0.3-2-0.7-2.9l-30.6-66.9c-1-3-3.8-5-7.1-5h-0.2h-0.4c-3.3,0-5.7,1.7-7.2,5l-30.7,67.1
		c-0.5,1-0.7,2-0.7,3.1c0,3.3,2.6,5.9,5.9,5.9h0.1c2.7,0,5-1.7,5.9-4.2l7.3-16.4h38.9l7.3,16.1c0.9,2.6,3.3,4.3,6,4.4l0,0l0,0
		C1743.3,556.2,1746.1,553.5,1746,550L1746,550L1746,550z M1721.4,523.9h-28.6l14.3-31.8L1721.4,523.9z"/>
	<path class="st0" d="M1820.4,545.6l-16.8-21.6c11.9-3.3,18.7-11.6,18.7-23.2v-0.2c0.1-6.1-2.1-11.9-6.4-16.3
		c-5.3-5.3-13.4-8.2-23-8.2h-28.3c-3.5,0.1-6.2,2.9-6.2,6.3V550c0,3.5,2.8,6.3,6.3,6.3s6.3-2.8,6.3-6.3v-23.6h18.7l20.6,26.8
		c1.2,1.9,3.3,3,5.6,3.1h0.1h0.1c3.4-0.1,6.1-2.7,6.3-6.1v-0.1V550C1822.2,548.3,1821.5,546.8,1820.4,545.6z M1809.6,500.9v0.2
		c0,8.2-6.9,13.6-17.5,13.6h-21.2v-26.8h21.3C1803.3,487.9,1809.6,492.6,1809.6,500.9z"/>
	<path class="st0" d="M1890.3,544h-41.2v-22.5h35.8c3.3,0,5.9-2.7,5.9-5.9c0-3.3-2.6-5.8-5.9-5.9H1849v-21.8h40.7
		c3.2,0,5.9-2.6,5.9-5.9c0-3.2-2.6-5.9-5.9-5.9h-47c-3.5,0.1-6.2,2.9-6.2,6.3v67c0,3.4,2.7,6.2,6.1,6.3l0,0l0,0h47.6
		c3.2,0,5.9-2.6,5.9-5.9C1896.2,546.6,1893.5,544,1890.3,544z"/>
</g>
<g>
	<path class="st0" d="M803.6,367.6v-24.7c-13.7,16.4-34.6,28.9-65.1,28.9c-38.1,0-71.5-21.7-71.5-62V309c0-43.4,34.6-64.7,81.4-64.7
		c24.4,0,40,3.4,55.6,8.4v-4.9c0-27.8-17.5-43-49.5-43c-22.5,0-39.2,4.9-57.5,12.6l-12.6-36.9c22.1-9.9,43.8-16.7,76.5-16.7
		c59.4,0,88.3,31.2,88.3,84.9v119.1H803.6z M804.8,282.3c-11.8-4.6-28.2-8-46-8c-28.9,0-46,11.8-46,32.3v0.8
		c0,19,17.1,29.7,38.8,29.7c30.4,0,53.3-17.1,53.3-42.2V282.3z"/>
	<path class="st0" d="M1073.4,367.6h-53.3l-60.5-86.8l-28.2,29.3v57.5h-46V89.8h46v165.9l83.3-89h55.9l-79.9,81.8L1073.4,367.6z"/>
	<path class="st0" d="M1216.5,166.6h46v200.9h-46v-31.2c-12.9,19-31.6,35.4-62.8,35.4c-45.3,0-71.5-30.4-71.5-77.2V166.6h46v114.2
		c0,31.2,15.6,49.1,43,49.1c26.6,0,45.3-18.6,45.3-49.9V166.6z"/>
	<path class="st0" d="M1302.1,135.8V92.1h49.5v43.8H1302.1z M1304,367.6V166.6h46v200.9H1304z"/>
	<path class="st0" d="M1446.7,304.8c0,17.9,9.1,25.1,24.7,25.1c10.3,0,19.4-2.3,28.5-6.9v37.7c-11.4,6.5-24.4,10.3-41.5,10.3
		c-33.9,0-57.8-14.8-57.8-59V206.2h-25.5v-39.6h25.5v-55.2h46v55.2h54v39.6h-54V304.8z"/>
	<path class="st0" d="M1615.7,334.5c22.5,0,38.4-8.4,54.4-24l27,24c-19,22.8-45.3,37.7-82.2,37.7c-58.2,0-103.1-42.2-103.1-104.6
		c0-57.8,40.7-105,98.2-105c63.9,0,96.3,50.2,96.3,108.5c0,4.2-0.4,8-0.8,12.6h-147.6C1563.2,316.2,1586,334.5,1615.7,334.5z
		 M1660.6,253c-3-29.7-20.5-52.9-51-52.9c-28.2,0-47.9,21.7-52.1,52.9H1660.6z"/>
	<path class="st0" d="M1829.5,372.1c-61.3,0-106.6-46.8-106.6-104.3c0-57.8,45.7-105.4,107.3-105.4c61.6,0,106.9,46.8,106.9,104.6
		C1937.2,324.6,1891.6,372.1,1829.5,372.1z M1829.5,202.8c-36.9,0-60.5,28.9-60.5,64.3c0,35.8,25.5,65.1,61.3,65.1
		c37.3,0,60.9-28.9,60.9-64.3C1891.2,232.1,1865.7,202.8,1829.5,202.8z"/>
</g>
</svg>
