<?xml version="1.0" encoding="utf-8"?>
<!-- Generator: Adobe Illustrator 24.1.0, SVG Export Plug-In . SVG Version: 6.00 Build 0)  -->
<svg version="1.1" id="Calque_1" xmlns="http://www.w3.org/2000/svg" xmlns:xlink="http://www.w3.org/1999/xlink" x="0px" y="0px"
	 width="94px" height="155px" viewBox="0 0 94 155" enable-background="new 0 0 94 155" xml:space="preserve">
<circle id="Ellipse_38" opacity="0.5" fill="#FFFFFF" enable-background="new    " cx="47.811" cy="45.091" r="37.148"/>
<path id="path14" fill="#C92358" d="M24.773,44.89l-6.5,4.166l2.033-11.507l9.92,0.2l13.223,10.405l7.588-21.553l-5.992-9.089
	l4.368-1.2l3.479-3.262l3.9,2.539l5.029-0.951l-0.651,4.96l-0.612,2.974l4.965,2.905l-6.29,3.62l-0.325,1.583l4.962,10.3l5.2,18.107
	l-7.9,8.841l-5.932,4.019H53.48l1.1,7.55l5.854,3.061H44.397l1.306-1.921l-2.278-0.526l3.255-2.837l-1.412-5.359l-1.819,0.031
	L25.217,57.365l1.492-0.794h2.471l-4.279-2.822l1.49-0.794h3.29L24.773,44.89z"/>
<path id="path18" fill="#FFFFFF" d="M8.526,81.385V60.656h3.087v18.021h3.929v2.708H8.526z"/>
<path id="path30" fill="#FFFFFF" d="M21.597,72.767c-0.786,0.467-1.339,0.815-1.339,1.69v4.192c0.024,0.331,0.311,0.579,0.641,0.556
	c0.01-0.001,0.019-0.002,0.029-0.003c0.363-0.016,0.654-0.307,0.669-0.67V72.767z M24.397,81.385h-2.621
	c-0.145-0.36-0.205-0.75-0.175-1.137h-0.059c-0.354,0.879-1.24,1.423-2.184,1.341c-0.941,0.107-1.79-0.569-1.896-1.51
	c-0.016-0.137-0.014-0.275,0.003-0.412v-5.589c0-3.378,4.048-1.6,4.048-5.851c0-0.5,0.115-1.661-0.554-1.661
	c-0.814,0-0.669,1.341-0.669,1.922v2.185h-2.825v-3.352c0-1.718,1.34-2.793,3.466-2.793s3.464,1.075,3.464,2.793v14.062
	L24.397,81.385z"/>
<path id="path34" fill="#FFFFFF" d="M8.526,108.458V87.729h6.929v2.71h-3.842v5.327h3.7v2.709h-3.7v9.986L8.526,108.458z"/>
<path id="path38" fill="#FFFFFF" d="M20.782,96.314h0.584c1.077,0,1.31-0.58,1.31-1.336v-3.756c0-0.787-0.467-1.019-1.165-1.019
	h-0.729V96.314z M17.697,108.457V87.728h4.075c2.475,0,3.988,0.873,3.988,3.552v2.941c0,1.542-0.437,2.823-3.057,3.115v0.058
	c1.368,0.174,2.824,0.64,2.94,2.532c0.01,2.851,0.177,5.699,0.5,8.531h-3.089c-0.388-2.621-0.515-5.274-0.378-7.92
	c0-1.252-0.467-1.746-1.894-1.687v9.607H17.697z"/>
<path id="path42" fill="#FFFFFF" d="M28.643,108.458V87.729h6.872v2.71h-3.784v5.327h3.637v2.709h-3.637v7.277h3.841v2.708
	L28.643,108.458z"/>
<path id="path46" fill="#FFFFFF" d="M42.53,87.728l0.874,5.968c0.703,3.88,1.189,7.797,1.455,11.732h0.117v-1.106
	c0.029-2.009-0.088-4.047-0.088-6.055V87.728h2.533v20.729H42.85l-1.454-10.365c-0.494-2.563-0.67-4.889-0.932-7.338h-0.116
	c0,0.9,0.057,1.8,0.086,2.681v15.022h-2.533V87.728H42.53z"/>
<path id="path50" fill="#FFFFFF" d="M55.282,95.301v-4.222c0-1.047-0.32-1.282-0.93-1.282c-0.642,0-0.962,0.234-0.962,1.282v14.033
	c0,1.049,0.32,1.281,0.962,1.281c0.61,0,0.93-0.232,0.93-1.281v-4.483h3.083v4.746c0,2.707-2.124,3.493-4.047,3.493
	c-1.892,0-4.017-0.786-4.017-3.493V90.816c0-2.708,2.126-3.495,4.017-3.495c1.923,0,4.047,0.787,4.047,3.495v4.485H55.282z"/>
<path id="path54" fill="#FFFFFF" d="M61.25,108.458V87.729h3.087v7.948h1.713v-7.948h3.09v20.729h-3.09V98.384h-1.713v10.075
	L61.25,108.458z"/>
<path id="path58" fill="#FFFFFF" d="M21.444,115.468v4.16H17.33v27.683h-4.742v-27.683H8.43v-4.16H21.444z"/>
<path id="path62" fill="#FFFFFF" d="M25.424,147.311v-31.843h10.554v4.16h-5.815v8.185h5.591v4.157h-5.591v11.182h5.9v4.159
	L25.424,147.311z"/>
<path id="path66" fill="#FFFFFF" d="M47.425,127.098v-6.485c0-1.609-0.493-1.967-1.431-1.967c-0.984,0-1.476,0.359-1.476,1.967
	v21.557c0,1.609,0.491,1.966,1.476,1.966c0.939,0,1.431-0.357,1.431-1.966v-6.888h4.741v7.292c0,4.157-3.264,5.366-6.217,5.366
	c-2.9,0-6.171-1.208-6.171-5.366V120.21c0-4.157,3.266-5.367,6.171-5.367c2.953,0,6.217,1.209,6.217,5.367v6.888H47.425z"/>
<path id="path70" fill="#FFFFFF" d="M56.86,147.311v-31.843h4.743v12.209h2.638v-12.209h4.74v31.843h-4.74v-15.474h-2.638v15.474
	H56.86z"/>
<g>
	<defs>
		<polygon id="SVGID_1_" points="48.937,71.947 51.437,79.156 54.716,80.445 53.473,71.945 		"/>
	</defs>
	<clipPath id="SVGID_2_">
		<use xlink:href="#SVGID_1_"  overflow="visible"/>
	</clipPath>
	
		<linearGradient id="path90_1_" gradientUnits="userSpaceOnUse" x1="87.436" y1="324.3393" x2="87.498" y2="324.3393" gradientTransform="matrix(5.779 0 0 -8.5 -505.2057 2833.0791)">
		<stop  offset="0" style="stop-color:#C92358"/>
		<stop  offset="1" style="stop-color:#E73151"/>
	</linearGradient>
	<path id="path90" clip-path="url(#SVGID_2_)" fill="url(#path90_1_)" d="M48.937,71.947l2.5,7.209l3.279,1.289l-1.243-8.5
		L48.937,71.947z"/>
</g>
<g>
	<defs>
		<polygon id="SVGID_3_" points="51.212,26.102 43.448,48.154 43.448,50.854 44.997,48.68 52.138,25.88 		"/>
	</defs>
	<clipPath id="SVGID_4_">
		<use xlink:href="#SVGID_3_"  overflow="visible"/>
	</clipPath>
	
		<linearGradient id="path110_1_" gradientUnits="userSpaceOnUse" x1="94.284" y1="348.8522" x2="94.325" y2="348.8522" gradientTransform="matrix(8.69 0 0 -24.974 -819.2603 8750.6016)">
		<stop  offset="0" style="stop-color:#C92358"/>
		<stop  offset="1" style="stop-color:#93231E"/>
	</linearGradient>
	<path id="path110" clip-path="url(#SVGID_4_)" fill="url(#path110_1_)" d="M51.212,26.102l-7.764,22.052v2.7l1.549-2.174
		l7.141-22.8L51.212,26.102z"/>
</g>
<linearGradient id="path134_1_" gradientUnits="userSpaceOnUse" x1="95.8555" y1="339.6393" x2="95.8905" y2="339.6393" gradientTransform="matrix(10.193 0 0 -14.449 -976.9819 4927.7358)">
	<stop  offset="0" style="stop-color:#93231E"/>
	<stop  offset="0.673" style="stop-color:#C92358"/>
	<stop  offset="1" style="stop-color:#C92358"/>
</linearGradient>
<path id="path134" fill="url(#path134_1_)" d="M49.412,16.311l-4.367,1.2L51.63,27.5l3.608-4.433l-2.317-10.016l-3.509,3.262V16.311
	z"/>
<linearGradient id="path154_1_" gradientUnits="userSpaceOnUse" x1="100.7756" y1="-37.3244" x2="100.7976" y2="-37.3244" gradientTransform="matrix(15.937 0 0 -0.792 -1605.9846 23.7932)">
	<stop  offset="0" style="stop-color:#93231E"/>
	<stop  offset="1" style="stop-color:#BC2222"/>
</linearGradient>
<path id="path154" fill="url(#path154_1_)" d="M24.905,53.75l15.937-0.692l-14.447-0.1L24.905,53.75z"/>
<linearGradient id="path180_1_" gradientUnits="userSpaceOnUse" x1="101.5148" y1="337.1745" x2="101.5338" y2="337.1745" gradientTransform="matrix(18.566 0 0 -12.985 -1884.6592 4437.6548)">
	<stop  offset="0" style="stop-color:#93231E"/>
	<stop  offset="0.356" style="stop-color:#C92358"/>
	<stop  offset="0.991" style="stop-color:#E6332D"/>
	<stop  offset="1" style="stop-color:#E6332D"/>
</linearGradient>
<path id="path180" fill="url(#path180_1_)" d="M24.905,53.75l18.566,12.191l-0.263-12.985L24.905,53.75z"/>
<linearGradient id="path202_1_" gradientUnits="userSpaceOnUse" x1="100.3711" y1="351.7402" x2="100.3911" y2="351.7402" gradientTransform="matrix(18.364 0 0 -32.364 -1843.1538 11422.96)">
	<stop  offset="0" style="stop-color:#E35D90"/>
	<stop  offset="0.559" style="stop-color:#D22527"/>
	<stop  offset="1" style="stop-color:#93231E"/>
</linearGradient>
<path id="path202" fill="url(#path202_1_)" d="M52.891,23.473l-7.893,25.2l18.364,6.755l-8.124-32.364L52.891,23.473z"/>
<linearGradient id="path222_1_" gradientUnits="userSpaceOnUse" x1="99.3021" y1="345.3159" x2="99.3291" y2="345.3159" gradientTransform="matrix(13.226 0 0 -19.517 -1313.3008 6787.0352)">
	<stop  offset="0" style="stop-color:#E73151"/>
	<stop  offset="1" style="stop-color:#93231E"/>
</linearGradient>
<path id="path222" fill="url(#path222_1_)" d="M41.156,57.091l2.293,0.174v-9.111L30.223,37.748L41.156,57.091L41.156,57.091z"/>
<linearGradient id="path246_1_" gradientUnits="userSpaceOnUse" x1="102.2277" y1="345.6576" x2="102.2447" y2="345.6576" gradientTransform="matrix(20.851 0 0 -19.938 -2131.468 6939.2446)">
	<stop  offset="0" style="stop-color:#E6332D"/>
	<stop  offset="0.484" style="stop-color:#E73151"/>
	<stop  offset="0.973" style="stop-color:#E35D9D"/>
	<stop  offset="1" style="stop-color:#E35D9D"/>
</linearGradient>
<path id="path246" fill="url(#path246_1_)" d="M32.443,57.486l8.713-0.4L30.225,37.748l-9.92-0.2l12.14,19.938L32.443,57.486z"/>
<linearGradient id="path266_1_" gradientUnits="userSpaceOnUse" x1="94.2115" y1="334.0501" x2="94.2665" y2="334.0501" gradientTransform="matrix(6.5 0 0 -11.507 -612.298 3887.2139)">
	<stop  offset="0" style="stop-color:#93231E"/>
	<stop  offset="1" style="stop-color:#C92358"/>
</linearGradient>
<path id="path266" fill="url(#path266_1_)" d="M18.27,49.057l6.5-4.166l-4.469-7.341L18.27,49.057z"/>
<linearGradient id="path286_1_" gradientUnits="userSpaceOnUse" x1="100.0155" y1="301.7108" x2="100.0365" y2="301.7108" gradientTransform="matrix(17.008 0 0 -5.283 -1700.9922 1673.8502)">
	<stop  offset="0" style="stop-color:#93231E"/>
	<stop  offset="1" style="stop-color:#C92358"/>
</linearGradient>
<path id="path286" fill="url(#path286_1_)" d="M43.425,80.109l10.05,2.448h6.958l-8.347-4.365l-5.41-0.918l-3.25,2.835H43.425z"/>
<linearGradient id="path308_1_" gradientUnits="userSpaceOnUse" x1="93.538" y1="329.9732" x2="93.578" y2="329.9732" gradientTransform="matrix(8.929 0 0 -10.019 -835.1541 3324.0435)">
	<stop  offset="0" style="stop-color:#D22527"/>
	<stop  offset="1" style="stop-color:#C92358"/>
</linearGradient>
<path id="path308" fill="url(#path308_1_)" d="M55.238,23.068l5.928-3.472l0.651-4.96l-5.029,0.952l-3.9-2.539L55.238,23.068z"/>
<linearGradient id="path328_1_" gradientUnits="userSpaceOnUse" x1="86.8361" y1="336.3414" x2="86.8961" y2="336.3414" gradientTransform="matrix(5.928 0 0 -12.555 -514.699 4248.6382)">
	<stop  offset="0" style="stop-color:#BC2322"/>
	<stop  offset="1" style="stop-color:#E73151"/>
</linearGradient>
<path id="path328" fill="url(#path328_1_)" d="M55.238,23.068l3.371,9.084l2.557-12.555l-5.928,3.472L55.238,23.068z"/>
<linearGradient id="path352_1_" gradientUnits="userSpaceOnUse" x1="84.7957" y1="260.4871" x2="84.8597" y2="260.4871" gradientTransform="matrix(5.577 0 0 -3.127 -472.8376 838.6711)">
	<stop  offset="0" style="stop-color:#E35D9D"/>
	<stop  offset="0.641" style="stop-color:#E73151"/>
	<stop  offset="1" style="stop-color:#BC2322"/>
</linearGradient>
<path id="path352" fill="url(#path352_1_)" d="M59.892,25.696l5.577-0.222l-4.914-2.905L59.892,25.696z"/>
<linearGradient id="path376_1_" gradientUnits="userSpaceOnUse" x1="87.2925" y1="274.2927" x2="87.3495" y2="274.2927" gradientTransform="matrix(6.286 0 0 -3.622 -548.6505 1020.7764)">
	<stop  offset="0" style="stop-color:#E73151"/>
	<stop  offset="0.569" style="stop-color:#C92358"/>
	<stop  offset="1" style="stop-color:#93231E"/>
</linearGradient>
<path id="path376" fill="url(#path376_1_)" d="M59.967,25.475l-0.734,3.622l6.286-3.622H59.967z"/>
<linearGradient id="path402_1_" gradientUnits="userSpaceOnUse" x1="101.422" y1="340.9586" x2="101.441" y2="340.9586" gradientTransform="matrix(18.254 0 0 -15.377 -1851.2748 5307.1821)">
	<stop  offset="0" style="stop-color:#93231E"/>
	<stop  offset="0.356" style="stop-color:#C92358"/>
	<stop  offset="0.991" style="stop-color:#E6332D"/>
	<stop  offset="1" style="stop-color:#E6332D"/>
</linearGradient>
<path id="path402" fill="url(#path402_1_)" d="M25.217,57.364l18.254,14.582V56.569L25.217,57.364z"/>
<linearGradient id="path422_1_" gradientUnits="userSpaceOnUse" x1="97.7859" y1="354.4582" x2="97.8119" y2="354.4582" gradientTransform="matrix(13.833 0 0 -44.856 -1352.6312 15945.0703)">
	<stop  offset="0" style="stop-color:#E35D91"/>
	<stop  offset="1" style="stop-color:#D22527"/>
</linearGradient>
<path id="path422" fill="url(#path422_1_)" d="M63.667,57.091l-2.5,10.834l7.9-8.841l-5.2-18.106l-8.633-17.909L63.667,57.091z"/>
<linearGradient id="path442_1_" gradientUnits="userSpaceOnUse" x1="87.0505" y1="317.062" x2="87.1205" y2="317.062" gradientTransform="matrix(5.107 0 0 -7.108 -444.4994 2306.6936)">
	<stop  offset="0" style="stop-color:#93231E"/>
	<stop  offset="1" style="stop-color:#E73151"/>
</linearGradient>
<path id="path442" fill="url(#path442_1_)" d="M38.41,52.231l2.454,4.34h2.653l-0.091-7.108L38.41,52.231z"/>
<linearGradient id="path466_1_" gradientUnits="userSpaceOnUse" x1="100.2529" y1="347.9261" x2="100.2729" y2="347.9261" gradientTransform="matrix(17.717 0 0 -23.27 -1776.1205 8156.5591)">
	<stop  offset="0" style="stop-color:#E24C89"/>
	<stop  offset="0.509" style="stop-color:#E73151"/>
	<stop  offset="1" style="stop-color:#C92358"/>
</linearGradient>
<path id="path466" fill="url(#path466_1_)" d="M43.449,49.463v22.485h11.789l5.928-4.023L44.998,48.678L43.449,49.463z"/>
<linearGradient id="path492_1_" gradientUnits="userSpaceOnUse" x1="101.4816" y1="345.0888" x2="101.4976" y2="345.0888" gradientTransform="matrix(22.875 0 0 -19.247 -2321.3159 6700.2285)">
	<stop  offset="0" style="stop-color:#93231E"/>
	<stop  offset="0.642" style="stop-color:#C92358"/>
	<stop  offset="0.991" style="stop-color:#E6332D"/>
	<stop  offset="1" style="stop-color:#E6332D"/>
</linearGradient>
<path id="path492" fill="url(#path492_1_)" d="M61.166,67.924l6.711-10.834l-22.875-8.413L61.166,67.924z"/>
<linearGradient id="path512_1_" gradientUnits="userSpaceOnUse" x1="101.4163" y1="-36.3127" x2="101.4353" y2="-36.3127" gradientTransform="matrix(18.233 0 0 -0.794 -1849.0521 28.1343)">
	<stop  offset="0" style="stop-color:#93231E"/>
	<stop  offset="1" style="stop-color:#C92358"/>
</linearGradient>
<path id="path512" fill="url(#path512_1_)" d="M26.706,56.57l-1.492,0.794l18.233-0.794H26.706z"/>
<linearGradient id="path548_1_" gradientUnits="userSpaceOnUse" x1="93.3714" y1="331.8385" x2="93.4154" y2="331.8385" gradientTransform="matrix(8.206 0 0 -10.649 -766.1353 3610.9932)">
	<stop  offset="0" style="stop-color:#C92358"/>
	<stop  offset="0.598" style="stop-color:#E73151"/>
	<stop  offset="1" style="stop-color:#E73151"/>
</linearGradient>
<path id="path548" fill="url(#path548_1_)" d="M45.268,71.915l1.783,6.76l1.885,1.239l4.538,2.65l-3.362-10.649L45.268,71.915z"/>
<linearGradient id="path568_1_" gradientUnits="userSpaceOnUse" x1="95.0463" y1="280.133" x2="95.0843" y2="280.133" gradientTransform="matrix(9.381 0 0 -3.882 -891.5566 1168.0889)">
	<stop  offset="0" style="stop-color:#E73151"/>
	<stop  offset="1" style="stop-color:#D22527"/>
</linearGradient>
<path id="path568" fill="url(#path568_1_)" d="M44.397,82.557h9.381l-6.726-3.882L44.397,82.557z"/>
</svg>
